# xmcd
# 
# Track frame offsets:
#     150
#     26616
#     60280
#     84028
#     111353
#     142768
#     163501
#     183798
#     208730
# 
# Disc length: 3025
# 
# Revision: 2
# Processed by: cddbd v1.5.2PL0 Copyright (c) Steve Scherf et al.
# Submitted via: fre:ac v1.1beta1pre5
# 
DISCID=650bcf09
DTITLE=browneyedsoul - soul fever live2
DYEAR=0
DGENRE=Soul
TTITLE0=내려놔요
TTITLE1=똑같다면
TTITLE2=시계
TTITLE3=Brown City_Can't Stop Lovin' You
TTITLE4=For Your Love
TTITLE5=he is real
TTITLE6=love you_without you
TTITLE7=my story
TTITLE8=you_추억사랑만큼
EXTD=
EXTT0=
EXTT1=
EXTT2=
EXTT3=
EXTT4=
EXTT5=
EXTT6=
EXTT7=
EXTT8=
PLAYORDER=
